<svg width="33" height="32" viewBox="0 0 33 32" fill="none" xmlns="http://www.w3.org/2000/svg">
<path d="M31.8125 1.5625L25.3125 0.0625C24.625 -0.125 23.875 0.25 23.5625 0.9375L20.5625 7.9375C20.3125 8.5625 20.5 9.25 21 9.6875L24.8125 12.8125C22.5625 17.5625 18.625 21.5625 13.75 23.875L10.625 20.0625C10.1875 19.5625 9.5 19.375 8.875 19.625L1.875 22.625C1.1875 22.9375 0.875 23.6875 1 24.375L2.5 30.875C2.6875 31.5625 3.25 32 4 32C20 32 33 19.0625 33 3C33 2.3125 32.5 1.75 31.8125 1.5625Z" fill="#D90062"/>
</svg>
